<?xml version="1.0" encoding="utf-8"?>
<!-- Generator: Adobe Illustrator 26.3.1, SVG Export Plug-In . SVG Version: 6.00 Build 0)  -->
<svg version="1.1" id="Layer_1" xmlns="http://www.w3.org/2000/svg" xmlns:xlink="http://www.w3.org/1999/xlink" x="0px" y="0px"
	 viewBox="0 0 100 100" style="enable-background:new 0 0 100 100;" xml:space="preserve">
<style type="text/css">
	.st0{fill:#2D62AE;}
</style>
<g>
	<g>
		<g>
			<path class="st0" d="M47.63,92.07c-8.8,0-17.36-4.56-22.07-12.71c-1.46-2.53-2.46-5.25-2.99-8.11L7.57,67
				c-0.3-0.09-0.51-0.36-0.51-0.68s0.21-0.6,0.52-0.68l15.15-4.29c1.22-5.7,4.37-10.84,8.9-14.49c0.3-0.25,0.75-0.2,1,0.11
				c0.25,0.3,0.2,0.75-0.11,1c-4.39,3.54-7.4,8.54-8.49,14.09c-0.05,0.26-0.24,0.47-0.5,0.55l-13.16,3.72l13.02,3.69
				c0.26,0.07,0.46,0.29,0.5,0.56c0.48,2.84,1.45,5.56,2.9,8.07c6.62,11.46,21.33,15.4,32.8,8.79c11.46-6.62,15.4-21.33,8.79-32.8
				C65.17,49.09,60,45.12,53.8,43.46c-6.19-1.66-12.66-0.81-18.21,2.4c-0.34,0.2-0.77,0.08-0.97-0.26s-0.08-0.77,0.26-0.97
				c5.88-3.4,12.73-4.3,19.29-2.54s12.04,5.96,15.44,11.84c7.01,12.14,2.83,27.72-9.3,34.73C56.3,90.98,51.94,92.07,47.63,92.07z"/>
		</g>
		<g>
			<path class="st0" d="M50.29,56.77c-11.22,0-21.52-7.5-24.57-18.84C22.1,24.39,30.17,10.42,43.7,6.79
				c13.54-3.62,27.51,4.44,31.13,17.98c0.75,2.81,1.02,5.7,0.79,8.6l13.4,7.98c0.27,0.16,0.4,0.49,0.32,0.79
				c-0.08,0.31-0.36,0.52-0.67,0.52l-15.74,0.23c-1.55,3.03-3.64,5.67-6.2,7.85c-0.3,0.25-0.74,0.22-1-0.08
				c-0.25-0.3-0.22-0.74,0.08-1c2.53-2.15,4.56-4.76,6.05-7.78c0.12-0.24,0.36-0.39,0.62-0.4l13.67-0.2l-11.63-6.93
				c-0.24-0.14-0.37-0.4-0.34-0.68c0.28-2.88,0.04-5.76-0.71-8.55c-3.43-12.78-16.61-20.4-29.4-16.98
				c-12.78,3.42-20.4,16.61-16.98,29.4c3.43,12.78,16.62,20.39,29.4,16.97c1.91-0.51,3.75-1.25,5.46-2.2
				c0.34-0.19,0.77-0.06,0.96,0.28s0.06,0.77-0.28,0.96c-1.81,1-3.76,1.78-5.78,2.33C54.67,56.48,52.46,56.77,50.29,56.77z"/>
		</g>
		<g>
			<path class="st0" d="M48.78,52.39c-1.9,0-3.44-1.54-3.44-3.43c0-1.9,1.54-3.44,3.44-3.44c1.89,0,3.43,1.54,3.43,3.44
				C52.21,50.86,50.67,52.39,48.78,52.39z M48.78,46.95c-1.11,0-2.02,0.91-2.02,2.02s0.91,2.01,2.02,2.01s2.02-0.9,2.02-2.01
				C50.79,47.85,49.89,46.95,48.78,46.95z"/>
		</g>
		<g>
			<path class="st0" d="M60.12,23H39.35c-0.39,0-0.71-0.32-0.71-0.71s0.32-0.71,0.71-0.71h20.76c0.39,0,0.71,0.32,0.71,0.71
				S60.51,23,60.12,23z"/>
		</g>
		<g>
			<path class="st0" d="M54.54,27.9H33.78c-0.39,0-0.71-0.32-0.71-0.71s0.32-0.71,0.71-0.71h20.77c0.39,0,0.71,0.32,0.71,0.71
				C55.25,27.58,54.93,27.9,54.54,27.9z"/>
		</g>
		<g>
			<path class="st0" d="M66.12,74.57H45.36c-0.39,0-0.71-0.32-0.71-0.71s0.32-0.71,0.71-0.71h20.76c0.39,0,0.71,0.32,0.71,0.71
				S66.51,74.57,66.12,74.57z"/>
		</g>
		<g>
			<path class="st0" d="M60.55,79.47H39.78c-0.39,0-0.71-0.32-0.71-0.71s0.32-0.71,0.71-0.71h20.77c0.39,0,0.71,0.32,0.71,0.71
				S60.94,79.47,60.55,79.47z"/>
		</g>
	</g>
</g>
</svg>
