<?xml version="1.0" encoding="utf-8"?>
<!-- Generator: Adobe Illustrator 26.3.1, SVG Export Plug-In . SVG Version: 6.00 Build 0)  -->
<svg version="1.1" id="Layer_1" xmlns="http://www.w3.org/2000/svg" xmlns:xlink="http://www.w3.org/1999/xlink" x="0px" y="0px"
	 viewBox="0 0 100 100" style="enable-background:new 0 0 100 100;" xml:space="preserve">
<style type="text/css">
	.st0{fill:#2D62AE;}
</style>
<g>
	<g>
		<g>
			<path class="st0" d="M81.52,91.51H30.34c-0.38,0-0.68-0.31-0.68-0.68v-70.2c0-0.38,0.31-0.68,0.68-0.68h38.39
				c0.18,0,0.35,0.07,0.48,0.2L82,32.94c0.13,0.13,0.2,0.3,0.2,0.48v57.41C82.2,91.21,81.9,91.51,81.52,91.51z M31.02,90.15h49.82
				V33.7L68.45,21.31H31.02V90.15z"/>
		</g>
		<g>
			<path class="st0" d="M18.46,80.06c-0.38,0-0.68-0.31-0.68-0.68V9.17c0-0.38,0.31-0.68,0.68-0.68h51.18
				c0.38,0,0.68,0.31,0.68,0.68c0,0.38-0.31,0.68-0.68,0.68h-50.5v69.52C19.14,79.75,18.84,80.06,18.46,80.06z"/>
		</g>
		<g>
			<path class="st0" d="M81.54,34.1c-0.01,0-0.01,0-0.02,0H68.73c-0.38,0-0.68-0.31-0.68-0.68V20.63c0-0.28,0.17-0.52,0.42-0.63
				c0.26-0.1,0.55-0.05,0.74,0.15l12.7,12.71c0.19,0.12,0.31,0.33,0.31,0.57C82.22,33.8,81.92,34.1,81.54,34.1z M69.41,32.74h10.46
				L69.41,22.27V32.74z"/>
		</g>
		<g>
			<path class="st0" d="M55.93,67.91c-7.09,0-12.86-5.78-12.86-12.88s5.77-12.87,12.86-12.87c7.1,0,12.88,5.77,12.88,12.87
				C68.8,62.13,63.03,67.91,55.93,67.91z M55.93,43.52c-6.34,0-11.49,5.16-11.49,11.5c0,6.35,5.16,11.52,11.49,11.52
				c6.35,0,11.51-5.17,11.51-11.52C67.44,48.68,62.27,43.52,55.93,43.52z"/>
		</g>
		<g>
			<path class="st0" d="M59.1,43.95c-0.06,0-0.12-0.01-0.18-0.02c-1.93-0.53-4.04-0.54-5.98,0c-0.2,0.06-0.43,0.01-0.59-0.11
				c-0.17-0.13-0.27-0.33-0.27-0.54v-5.36c0-0.38,0.31-0.68,0.68-0.68h6.34c0.38,0,0.68,0.31,0.68,0.68v5.36
				c0,0.21-0.1,0.41-0.27,0.54C59.39,43.9,59.25,43.95,59.1,43.95z M55.93,42.16c0.84,0,1.68,0.08,2.49,0.25V38.6h-4.98v3.81
				C54.25,42.24,55.09,42.16,55.93,42.16z"/>
		</g>
		<g>
			<path class="st0" d="M67.71,52.58c-0.09,0-0.18-0.02-0.26-0.05c-0.2-0.08-0.34-0.25-0.4-0.45c-0.27-0.99-0.65-1.93-1.15-2.79
				c-0.51-0.88-1.13-1.69-1.84-2.4c-0.15-0.15-0.22-0.36-0.19-0.57c0.03-0.21,0.15-0.4,0.34-0.5l4.64-2.68
				c0.16-0.09,0.34-0.12,0.52-0.07c0.17,0.05,0.32,0.16,0.41,0.32l3.17,5.5c0.19,0.33,0.08,0.74-0.25,0.93l-4.63,2.68
				C67.94,52.55,67.83,52.58,67.71,52.58z M65.62,46.56c0.55,0.63,1.03,1.31,1.45,2.04c0.42,0.72,0.76,1.48,1.03,2.28l3.3-1.91
				l-2.49-4.32L65.62,46.56z"/>
		</g>
		<g>
			<path class="st0" d="M69.18,67.02c-0.12,0-0.24-0.03-0.34-0.09l-4.64-2.68c-0.18-0.11-0.31-0.29-0.34-0.5s0.05-0.42,0.2-0.57
				c0.7-0.69,1.32-1.5,1.83-2.39c0.5-0.86,0.89-1.8,1.16-2.8c0.06-0.2,0.2-0.37,0.4-0.45c0.19-0.08,0.42-0.07,0.6,0.04l4.63,2.68
				c0.33,0.19,0.44,0.6,0.25,0.93l-3.17,5.49c-0.09,0.16-0.24,0.27-0.42,0.32C69.3,67.01,69.24,67.02,69.18,67.02z M65.63,63.5
				l3.3,1.91l2.48-4.31l-3.3-1.91c-0.27,0.8-0.62,1.56-1.03,2.28C66.65,62.2,66.17,62.88,65.63,63.5z"/>
		</g>
		<g>
			<path class="st0" d="M59.1,72.84h-6.34c-0.38,0-0.68-0.31-0.68-0.68V66.8c0-0.21,0.1-0.41,0.27-0.54
				c0.17-0.13,0.39-0.17,0.59-0.11c1.94,0.54,4.05,0.53,5.98,0c0.2-0.06,0.43-0.01,0.59,0.11c0.17,0.13,0.27,0.33,0.27,0.54v5.36
				C59.78,72.53,59.48,72.84,59.1,72.84z M53.44,71.47h4.98v-3.81c-1.62,0.32-3.35,0.33-4.98,0V71.47z"/>
		</g>
		<g>
			<path class="st0" d="M42.69,67.02c-0.24,0-0.47-0.12-0.59-0.34l-3.17-5.49c-0.09-0.16-0.12-0.34-0.07-0.52s0.16-0.32,0.32-0.41
				l4.64-2.68c0.18-0.11,0.4-0.12,0.6-0.04c0.2,0.08,0.34,0.25,0.4,0.45c0.26,0.99,0.65,1.92,1.15,2.79
				c0.51,0.88,1.13,1.69,1.84,2.4c0.15,0.15,0.22,0.36,0.19,0.57c-0.03,0.21-0.15,0.39-0.34,0.5l-4.63,2.67
				C42.92,66.99,42.8,67.02,42.69,67.02z M40.45,61.1l2.49,4.31l3.3-1.9c-0.54-0.63-1.03-1.31-1.45-2.04
				c-0.42-0.72-0.76-1.48-1.03-2.28L40.45,61.1z"/>
		</g>
		<g>
			<path class="st0" d="M44.15,52.58c-0.12,0-0.24-0.03-0.34-0.09l-4.64-2.68c-0.33-0.19-0.44-0.61-0.25-0.93l3.17-5.49
				c0.09-0.16,0.24-0.27,0.41-0.32s0.36-0.02,0.52,0.07l4.63,2.68c0.18,0.11,0.31,0.29,0.34,0.5s-0.05,0.42-0.2,0.57
				c-0.7,0.7-1.32,1.5-1.84,2.39c-0.51,0.87-0.89,1.81-1.15,2.79c-0.05,0.2-0.2,0.37-0.4,0.46C44.33,52.56,44.24,52.58,44.15,52.58z
				 M40.45,48.97l3.3,1.91c0.27-0.79,0.61-1.55,1.03-2.28s0.91-1.41,1.45-2.03l-3.3-1.91L40.45,48.97z"/>
		</g>
		<g>
			<path class="st0" d="M55.93,61.81c-3.74,0-6.77-3.04-6.77-6.78c0-3.73,3.04-6.77,6.77-6.77c3.74,0,6.78,3.04,6.78,6.77
				C62.71,58.77,59.66,61.81,55.93,61.81z M55.93,49.62c-2.98,0-5.41,2.42-5.41,5.4c0,2.99,2.43,5.42,5.41,5.42
				c2.99,0,5.42-2.43,5.42-5.42C61.34,52.05,58.91,49.62,55.93,49.62z"/>
		</g>
		<g>
			<path class="st0" d="M64.49,83.88c-0.03,0-0.05,0-0.08,0s-0.06,0-0.1,0c-0.03,0-0.06,0-0.1,0c-0.03,0-0.06,0-0.1,0
				c-0.03,0-0.06,0-0.1,0c-0.03,0-0.06,0-0.1,0c-0.03,0-0.06,0-0.1,0c-0.03,0-0.06,0-0.1,0c-0.03,0-0.06,0-0.1,0
				c-0.03,0-0.06,0-0.1,0c-0.03,0-0.06,0-0.1,0c-0.03,0-0.06,0-0.1,0c-0.03,0-0.06,0-0.1,0c-0.03,0-0.06,0-0.1,0
				c-0.03,0-0.06,0-0.1,0c-0.03,0-0.06,0-0.1,0c-0.03,0-0.06,0-0.1,0c-0.03,0-0.06,0-0.1,0c-0.03,0-0.06,0-0.1,0
				c-0.03,0-0.06,0-0.1,0c-0.03,0-0.06,0-0.1,0c-0.03,0-0.06,0-0.1,0c-0.03,0-0.06,0-0.1,0c-0.03,0-0.06,0-0.1,0
				c-0.03,0-0.06,0-0.1,0c-0.03,0-0.06,0-0.1,0c-0.03,0-0.06,0-0.1,0c-0.03,0-0.06,0-0.1,0c-0.03,0-0.06,0-0.1,0
				c-0.03,0-0.06,0-0.1,0c-0.03,0-0.06,0-0.1,0c-0.03,0-0.06,0-0.1,0c-0.03,0-0.06,0-0.1,0c-0.03,0-0.06,0-0.1,0
				c-0.03,0-0.06,0-0.1,0c-0.03,0-0.06,0-0.1,0c-0.03,0-0.06,0-0.1,0c-0.03,0-0.06,0-0.1,0c-0.03,0-0.06,0-0.1,0
				c-0.03,0-0.06,0-0.1,0c-0.03,0-0.06,0-0.1,0c-0.03,0-0.06,0-0.1,0c-0.03,0-0.06,0-0.1,0c-0.03,0-0.06,0-0.1,0
				c-0.03,0-0.06,0-0.1,0c-0.03,0-0.06,0-0.1,0c-0.03,0-0.06,0-0.1,0c-0.03,0-0.06,0-0.1,0c-0.03,0-0.06,0-0.1,0
				c-0.03,0-0.06,0-0.1,0c-0.03,0-0.06,0-0.1,0c-0.03,0-0.06,0-0.1,0c-0.03,0-0.06,0-0.1,0c-0.03,0-0.06,0-0.1,0
				c-0.03,0-0.06,0-0.1,0c-0.03,0-0.06,0-0.1,0c-0.03,0-0.06,0-0.1,0c-0.03,0-0.06,0-0.1,0c-0.03,0-0.06,0-0.1,0
				c-0.03,0-0.06,0-0.1,0c-0.03,0-0.06,0-0.1,0c-0.03,0-0.06,0-0.1,0c-0.03,0-0.06,0-0.1,0c-0.03,0-0.06,0-0.1,0
				c-0.03,0-0.06,0-0.1,0c-0.03,0-0.06,0-0.1,0c-0.03,0-0.06,0-0.1,0c-0.03,0-0.06,0-0.1,0c-0.03,0-0.06,0-0.1,0
				c-0.03,0-0.06,0-0.1,0c-0.03,0-0.06,0-0.1,0c-0.03,0-0.06,0-0.1,0c-0.03,0-0.06,0-0.1,0c-0.03,0-0.06,0-0.1,0
				c-0.03,0-0.06,0-0.1,0c-0.03,0-0.06,0-0.1,0c-0.03,0-0.06,0-0.1,0c-0.03,0-0.06,0-0.1,0c-0.03,0-0.06,0-0.1,0
				c-0.03,0-0.06,0-0.1,0c-0.03,0-0.06,0-0.1,0c-0.03,0-0.06,0-0.1,0c-0.03,0-0.06,0-0.1,0c-0.03,0-0.06,0-0.1,0
				c-0.03,0-0.06,0-0.1,0c-0.03,0-0.06,0-0.1,0c-0.03,0-0.06,0-0.1,0c-0.03,0-0.06,0-0.1,0c-0.03,0-0.06,0-0.1,0
				c-0.03,0-0.06,0-0.1,0c-0.03,0-0.06,0-0.1,0c-0.03,0-0.06,0-0.1,0c-0.03,0-0.06,0-0.1,0c-0.03,0-0.06,0-0.1,0
				c-0.03,0-0.06,0-0.1,0c-0.03,0-0.06,0-0.1,0c-0.03,0-0.06,0-0.1,0c-0.03,0-0.06,0-0.1,0c-0.03,0-0.06,0-0.1,0
				c-0.03,0-0.06,0-0.1,0c-0.03,0-0.06,0-0.1,0c-0.03,0-0.06,0-0.1,0c-0.03,0-0.06,0-0.1,0c-0.03,0-0.06,0-0.1,0
				c-0.03,0-0.06,0-0.1,0c-0.03,0-0.06,0-0.1,0c-0.03,0-0.06,0-0.1,0c-0.03,0-0.06,0-0.1,0c-0.03,0-0.06,0-0.1,0
				c-0.03,0-0.06,0-0.1,0c-0.03,0-0.06,0-0.1,0c-0.03,0-0.06,0-0.1,0c-0.03,0-0.06,0-0.1,0c-0.03,0-0.06,0-0.1,0
				c-0.03,0-0.06,0-0.1,0c-0.03,0-0.06,0-0.1,0c-0.03,0-0.06,0-0.1,0c-0.03,0-0.06,0-0.1,0c-0.03,0-0.06,0-0.1,0
				c-0.03,0-0.06,0-0.1,0c-0.03,0-0.06,0-0.1,0c-0.03,0-0.06,0-0.1,0c-0.03,0-0.06,0-0.1,0c-0.03,0-0.06,0-0.1,0
				c-0.03,0-0.06,0-0.1,0c-0.03,0-0.06,0-0.1,0c-0.03,0-0.06,0-0.1,0c-0.03,0-0.06,0-0.1,0c-0.03,0-0.06,0-0.1,0
				c-0.03,0-0.06,0-0.1,0c-0.03,0-0.06,0-0.1,0c-0.03,0-0.06,0-0.1,0c-0.03,0-0.06,0-0.1,0c-0.03,0-0.06,0-0.1,0
				c-0.03,0-0.06,0-0.1,0c-0.03,0-0.06,0-0.1,0c-0.03,0-0.06,0-0.1,0c-0.03,0-0.06,0-0.1,0c-0.03,0-0.06,0-0.1,0
				c-0.03,0-0.06,0-0.1,0c-0.03,0-0.06,0-0.1,0c-0.03,0-0.06,0-0.1,0c-0.03,0-0.06,0-0.1,0c-0.03,0-0.06,0-0.1,0
				c-0.03,0-0.06,0-0.1,0c-0.03,0-0.06,0-0.1,0c-0.03,0-0.06,0-0.1,0c-0.03,0-0.06,0-0.1,0c-0.03,0-0.06,0-0.1,0
				c-0.03,0-0.06,0-0.1,0c-0.03,0-0.06,0-0.1,0c-0.03,0-0.06,0-0.1,0c-0.03,0-0.06,0-0.1,0c-0.03,0-0.06,0-0.1,0
				c-0.03,0-0.06,0-0.1,0c-0.03,0-0.06,0-0.1,0c-0.03,0-0.06,0-0.1,0c-0.03,0-0.06,0-0.1,0c-0.03,0-0.06,0-0.1,0
				c-0.03,0-0.06,0-0.1,0c-0.03,0-0.06,0-0.1,0c-0.03,0-0.06,0-0.1,0c-0.03,0-0.06,0-0.1,0c-0.03,0-0.06,0-0.1,0
				c-0.03,0-0.06,0-0.1,0c-0.03,0-0.06,0-0.1,0c-0.03,0-0.06,0-0.1,0c-0.03,0-0.06,0-0.1,0c-0.03,0-0.06,0-0.1,0
				c-0.03,0-0.06,0-0.1,0c-0.03,0-0.06,0-0.1,0c-0.03,0-0.06,0-0.1,0c-0.03,0-0.06,0-0.1,0c-0.03,0-0.06,0-0.1,0
				c-0.03,0-0.06,0-0.1,0c-0.03,0-0.06,0-0.1,0c-0.03,0-0.06,0-0.1,0c-0.03,0-0.06,0-0.1,0c-0.38,0-0.71-0.31-0.71-0.68
				s0.28-0.68,0.66-0.68h0.05c0.01,0,0.03,0,0.05,0h0.05c0.01,0,0.03,0,0.05,0h0.05c0.01,0,0.03,0,0.05,0h0.05c0.02,0,0.03,0,0.05,0
				h0.05c0.02,0,0.03,0,0.05,0h0.05c0.01,0,0.03,0,0.05,0h0.05c0.01,0,0.03,0,0.05,0h0.05c0.02,0,0.03,0,0.05,0h0.05
				c0.02,0,0.03,0,0.05,0h0.05c0.01,0,0.03,0,0.05,0h0.05c0.02,0,0.03,0,0.05,0h0.05c0.02,0,0.03,0,0.05,0h0.05
				c0.02,0,0.03,0,0.05,0h0.05c0.01,0,0.03,0,0.05,0h0.05c0.02,0,0.03,0,0.05,0h0.05c0.02,0,0.03,0,0.05,0h0.05
				c0.02,0,0.03,0,0.05,0h0.05c0.01,0,0.03,0,0.05,0h0.05c0.02,0,0.03,0,0.05,0h0.05c0.01,0,0.03,0,0.05,0h0.05
				c0.02,0,0.03,0,0.05,0h0.05c0.01,0,0.03,0,0.05,0h0.05c0.01,0,0.03,0,0.05,0h0.05c0.01,0,0.03,0,0.05,0h0.05
				c0.02,0,0.03,0,0.05,0h0.05c0.01,0,0.03,0,0.05,0h0.05c0.01,0,0.03,0,0.05,0h0.05c0.01,0,0.03,0,0.05,0h0.05
				c0.02,0,0.03,0,0.05,0h0.05c0.01,0,0.03,0,0.05,0h0.05c0.01,0,0.03,0,0.05,0h0.05c0.02,0,0.03,0,0.05,0h0.05
				c0.02,0,0.03,0,0.05,0h0.05c0.01,0,0.03,0,0.05,0h0.05c0.02,0,0.03,0,0.05,0h0.05c0.02,0,0.03,0,0.05,0h0.05
				c0.02,0,0.03,0,0.05,0h0.05c0.01,0,0.03,0,0.05,0h0.05c0.02,0,0.03,0,0.05,0h0.05c0.02,0,0.03,0,0.05,0h0.05
				c0.02,0,0.03,0,0.05,0h0.05c0.01,0,0.03,0,0.05,0h0.05c0.02,0,0.03,0,0.05,0h0.05c0.01,0,0.03,0,0.05,0h0.05
				c0.02,0,0.03,0,0.05,0h0.05c0.01,0,0.03,0,0.05,0h0.05c0.01,0,0.03,0,0.05,0h0.05c0.01,0,0.03,0,0.05,0h0.05
				c0.02,0,0.03,0,0.05,0h0.05c0.02,0,0.03,0,0.05,0h0.05c0.01,0,0.03,0,0.05,0h0.05c0.01,0,0.03,0,0.05,0h0.05
				c0.02,0,0.03,0,0.05,0h0.05c0.02,0,0.03,0,0.05,0h0.05c0.01,0,0.03,0,0.05,0h0.05c0.02,0,0.03,0,0.05,0h0.05
				c0.02,0,0.03,0,0.05,0h0.05c0.02,0,0.03,0,0.05,0h0.05c0.01,0,0.03,0,0.05,0h0.05c0.02,0,0.03,0,0.05,0h0.05
				c0.02,0,0.03,0,0.05,0h0.05c0.02,0,0.03,0,0.05,0h0.05c0.01,0,0.03,0,0.05,0h0.05c0.02,0,0.03,0,0.05,0h0.05
				c0.01,0,0.03,0,0.05,0h0.05c0.02,0,0.03,0,0.05,0h0.05c0.01,0,0.03,0,0.05,0h0.05c0.01,0,0.03,0,0.05,0h0.05
				c0.01,0,0.03,0,0.05,0h0.05c0.02,0,0.03,0,0.05,0h0.05c0.01,0,0.03,0,0.05,0h0.05c0.01,0,0.03,0,0.05,0h0.05
				c0.01,0,0.03,0,0.05,0h0.05c0.02,0,0.03,0,0.05,0h0.05c0.01,0,0.03,0,0.05,0h0.05c0.01,0,0.03,0,0.05,0h0.05
				c0.02,0,0.03,0,0.05,0h0.05c0.02,0,0.03,0,0.05,0h0.05c0.01,0,0.03,0,0.05,0H55c0.02,0,0.03,0,0.05,0h0.05c0.02,0,0.03,0,0.05,0
				h0.05c0.02,0,0.03,0,0.05,0h0.05c0.01,0,0.03,0,0.05,0h0.05c0.02,0,0.03,0,0.05,0h0.05c0.02,0,0.03,0,0.05,0h0.05
				c0.02,0,0.03,0,0.05,0h0.05c0.01,0,0.03,0,0.05,0h0.05c0.02,0,0.03,0,0.05,0h0.05c0.01,0,0.03,0,0.05,0H56c0.02,0,0.03,0,0.05,0
				h0.05c0.01,0,0.03,0,0.05,0h0.05c0.01,0,0.03,0,0.05,0h0.05c0.01,0,0.03,0,0.05,0h0.05c0.02,0,0.03,0,0.05,0h0.05
				c0.02,0,0.03,0,0.05,0h0.05c0.01,0,0.03,0,0.05,0h0.05c0.01,0,0.03,0,0.05,0h0.05c0.02,0,0.03,0,0.05,0h0.05
				c0.02,0,0.03,0,0.05,0H57c0.01,0,0.03,0,0.05,0h0.05c0.02,0,0.03,0,0.05,0h0.05c0.02,0,0.03,0,0.05,0h0.05c0.02,0,0.03,0,0.05,0
				h0.05c0.01,0,0.03,0,0.05,0h0.05c0.02,0,0.03,0,0.05,0h0.05c0.02,0,0.03,0,0.05,0h0.05c0.02,0,0.03,0,0.05,0h0.05
				c0.01,0,0.03,0,0.05,0h0.05c0.02,0,0.03,0,0.05,0H58c0.01,0,0.03,0,0.05,0h0.05c0.02,0,0.03,0,0.05,0h0.05c0.02,0,0.03,0,0.05,0
				h0.05c0.01,0,0.03,0,0.05,0h0.05c0.01,0,0.03,0,0.05,0h0.05c0.02,0,0.03,0,0.05,0h0.05c0.01,0,0.03,0,0.05,0h0.05
				c0.01,0,0.03,0,0.05,0h0.05c0.02,0,0.03,0,0.05,0h0.05c0.02,0,0.03,0,0.05,0H59c0.01,0,0.03,0,0.05,0h0.05c0.02,0,0.03,0,0.05,0
				h0.05c0.02,0,0.03,0,0.05,0h0.05c0.02,0,0.03,0,0.05,0h0.05c0.02,0,0.03,0,0.05,0h0.05c0.02,0,0.03,0,0.05,0h0.05
				c0.02,0,0.03,0,0.05,0h0.05c0.02,0,0.03,0,0.05,0h0.05c0.01,0,0.03,0,0.05,0h0.05c0.02,0,0.03,0,0.05,0H60c0.02,0,0.03,0,0.05,0
				h0.05c0.02,0,0.03,0,0.05,0h0.05c0.01,0,0.03,0,0.05,0h0.05c0.02,0,0.03,0,0.05,0h0.05c0.01,0,0.03,0,0.05,0h0.05
				c0.02,0,0.03,0,0.05,0h0.05c0.02,0,0.03,0,0.05,0h0.05c0.01,0,0.03,0,0.05,0h0.05c0.01,0,0.03,0,0.05,0h0.05
				c0.02,0,0.03,0,0.05,0H61c0.02,0,0.03,0,0.05,0h0.05c0.01,0,0.03,0,0.05,0h0.05c0.02,0,0.03,0,0.05,0h0.05c0.02,0,0.03,0,0.05,0
				h0.05c0.02,0,0.03,0,0.05,0h0.05c0.02,0,0.03,0,0.05,0h0.05c0.02,0,0.03,0,0.05,0h0.05c0.02,0,0.03,0,0.05,0h0.05
				c0.02,0,0.03,0,0.05,0h0.05c0.01,0,0.03,0,0.05,0H62c0.02,0,0.03,0,0.05,0h0.05c0.02,0,0.03,0,0.05,0h0.05c0.02,0,0.03,0,0.05,0
				h0.05c0.01,0,0.03,0,0.05,0h0.05c0.02,0,0.03,0,0.05,0h0.05c0.01,0,0.03,0,0.05,0h0.05c0.02,0,0.03,0,0.05,0h0.05
				c0.02,0,0.03,0,0.05,0h0.05c0.01,0,0.03,0,0.05,0h0.05c0.01,0,0.03,0,0.05,0H63c0.02,0,0.03,0,0.05,0h0.05c0.01,0,0.03,0,0.05,0
				h0.05c0.01,0,0.03,0,0.05,0h0.05c0.02,0,0.03,0,0.05,0h0.05c0.02,0,0.03,0,0.05,0h0.05c0.01,0,0.03,0,0.05,0h0.05
				c0.02,0,0.03,0,0.05,0h0.05c0.02,0,0.03,0,0.05,0h0.05c0.02,0,0.03,0,0.05,0h0.05c0.02,0,0.03,0,0.05,0H64c0.02,0,0.03,0,0.05,0
				h0.05c0.02,0,0.03,0,0.05,0h0.05c0.02,0,0.03,0,0.05,0h0.05c0.01,0,0.03,0,0.05,0h0.05c0.02,0,0.03,0,0.05,0h0.05
				c0.02,0,0.03,0,0.05,0h0.05c0.02,0,0.03,0,0.05,0h0.05c0.01,0,0.03,0,0.05,0h0.05c0.02,0,0.03,0,0.05,0h0.04
				c0.38,0,0.68,0.31,0.68,0.68S64.87,83.88,64.49,83.88z"/>
		</g>
		<g>
			<path class="st0" d="M71.47,79.24H40.39c-0.38,0-0.68-0.31-0.68-0.68c0-0.38,0.31-0.68,0.68-0.68h31.08
				c0.38,0,0.68,0.31,0.68,0.68S71.85,79.24,71.47,79.24z"/>
		</g>
	</g>
</g>
</svg>
