<?xml version="1.0" encoding="utf-8"?>
<!-- Generator: Adobe Illustrator 26.3.1, SVG Export Plug-In . SVG Version: 6.00 Build 0)  -->
<svg version="1.1" id="Layer_1" xmlns="http://www.w3.org/2000/svg" xmlns:xlink="http://www.w3.org/1999/xlink" x="0px" y="0px"
	 viewBox="0 0 100 100" style="enable-background:new 0 0 100 100;" xml:space="preserve">
<style type="text/css">
	.st0{fill:#2D62AE;}
</style>
<g>
	<g>
		<g>
			<path class="st0" d="M56.84,85.67H28.82c-0.38,0-0.7-0.31-0.7-0.7V19.95c0-0.38,0.31-0.7,0.7-0.7h35.56
				c0.18,0,0.36,0.07,0.49,0.2L76.72,31.3c0.13,0.13,0.2,0.31,0.2,0.49V69.9c0,0.38-0.31,0.7-0.7,0.7c-0.38,0-0.7-0.31-0.7-0.7
				V32.09L64.09,20.65H29.52v63.63h27.33c0.38,0,0.7,0.31,0.7,0.7C57.54,85.36,57.23,85.67,56.84,85.67z"/>
		</g>
		<g>
			<path class="st0" d="M17.81,75.05c-0.38,0-0.7-0.31-0.7-0.7V9.34c0-0.38,0.31-0.7,0.7-0.7h47.41c0.38,0,0.7,0.31,0.7,0.7
				c0,0.38-0.31,0.7-0.7,0.7H18.51v64.31C18.51,74.74,18.2,75.05,17.81,75.05z"/>
		</g>
		<g>
			<path class="st0" d="M76.25,32.5c-0.01,0-0.01,0-0.02,0H64.38c-0.38,0-0.7-0.31-0.7-0.7V19.95c0-0.28,0.17-0.53,0.43-0.64
				c0.26-0.11,0.56-0.05,0.76,0.15l11.76,11.76c0.19,0.12,0.32,0.34,0.32,0.58C76.95,32.19,76.64,32.5,76.25,32.5z M65.07,31.11
				h9.48l-9.48-9.48C65.07,21.63,65.07,31.11,65.07,31.11z"/>
		</g>
		<g>
			<path class="st0" d="M69.62,89c-6.11,0-11.08-4.97-11.08-11.08s4.97-11.08,11.08-11.08S80.7,71.81,80.7,77.92
				C80.7,84.03,75.73,89,69.62,89z M69.62,68.23c-5.34,0-9.69,4.35-9.69,9.69s4.35,9.69,9.69,9.69c5.34,0,9.69-4.35,9.69-9.69
				C79.31,72.57,74.96,68.23,69.62,68.23z"/>
		</g>
		<g>
			<path class="st0" d="M72.32,68.59c-0.06,0-0.13-0.01-0.19-0.03c-1.61-0.45-3.42-0.45-5.02,0c-0.21,0.06-0.43,0.02-0.61-0.12
				c-0.17-0.13-0.27-0.34-0.27-0.55v-4.57c0-0.38,0.31-0.7,0.7-0.7h5.4c0.38,0,0.7,0.31,0.7,0.7v4.57c0,0.22-0.1,0.42-0.27,0.55
				C72.62,68.54,72.47,68.59,72.32,68.59z M67.61,64.02v3c1.31-0.24,2.7-0.24,4.01,0v-3H67.61z"/>
		</g>
		<g>
			<path class="st0" d="M79.65,75.94c-0.09,0-0.18-0.02-0.27-0.05c-0.2-0.08-0.35-0.25-0.4-0.46c-0.21-0.8-0.54-1.59-0.97-2.35
				c-0.43-0.74-0.95-1.42-1.55-2.02c-0.15-0.15-0.23-0.37-0.2-0.58c0.03-0.21,0.15-0.4,0.34-0.51l3.95-2.28
				c0.33-0.19,0.76-0.08,0.95,0.25l2.7,4.68c0.09,0.16,0.12,0.35,0.07,0.53s-0.16,0.33-0.32,0.42L80,75.85
				C79.89,75.91,79.77,75.94,79.65,75.94z M78.05,70.73c0.43,0.51,0.82,1.06,1.16,1.65c0.34,0.59,0.62,1.21,0.85,1.83l2.6-1.5
				l-2.01-3.48L78.05,70.73z"/>
		</g>
		<g>
			<path class="st0" d="M80.91,88.25c-0.12,0-0.24-0.03-0.35-0.09l-3.95-2.28c-0.19-0.11-0.31-0.3-0.34-0.51s0.04-0.43,0.2-0.58
				c0.6-0.6,1.12-1.28,1.55-2.02c0.44-0.76,0.76-1.55,0.97-2.35c0.05-0.21,0.2-0.38,0.4-0.47c0.2-0.09,0.43-0.07,0.62,0.04
				l3.95,2.29c0.33,0.19,0.45,0.62,0.25,0.95l-2.7,4.68C81.38,88.13,81.15,88.25,80.91,88.25z M78.05,85.11l2.6,1.5l2.01-3.48
				l-2.6-1.5c-0.22,0.62-0.51,1.24-0.85,1.83C78.88,84.05,78.49,84.6,78.05,85.11z"/>
		</g>
		<g>
			<path class="st0" d="M72.32,93.2h-5.4c-0.38,0-0.7-0.31-0.7-0.7v-4.55c0-0.22,0.1-0.42,0.27-0.55c0.17-0.13,0.39-0.17,0.6-0.12
				c1.65,0.43,3.4,0.43,5.05,0c0.21-0.05,0.43-0.01,0.6,0.12c0.17,0.13,0.27,0.34,0.27,0.55v4.55C73.01,92.89,72.7,93.2,72.32,93.2z
				 M67.61,91.81h4.01v-3c-1.32,0.24-2.69,0.24-4.01,0V91.81z"/>
		</g>
		<g>
			<path class="st0" d="M58.33,88.25c-0.24,0-0.47-0.13-0.6-0.35l-2.7-4.68c-0.09-0.16-0.12-0.35-0.07-0.53s0.16-0.33,0.32-0.42
				L59.24,80c0.19-0.11,0.41-0.12,0.61-0.04s0.35,0.25,0.4,0.46c0.22,0.82,0.55,1.61,0.97,2.35c0.42,0.73,0.94,1.41,1.55,2.02
				c0.15,0.15,0.23,0.37,0.2,0.58s-0.16,0.4-0.34,0.51l-3.95,2.28C58.57,88.22,58.45,88.25,58.33,88.25z M56.58,83.13l2.01,3.47
				l2.6-1.5c-0.44-0.52-0.83-1.07-1.16-1.65c-0.34-0.58-0.62-1.19-0.84-1.83L56.58,83.13z"/>
		</g>
		<g>
			<path class="st0" d="M59.58,75.94c-0.12,0-0.24-0.03-0.35-0.09l-3.95-2.28c-0.16-0.09-0.28-0.24-0.32-0.42
				c-0.05-0.18-0.02-0.37,0.07-0.53l2.7-4.68c0.19-0.33,0.62-0.45,0.95-0.25l3.95,2.28c0.19,0.11,0.31,0.3,0.34,0.51
				s-0.04,0.43-0.2,0.58c-0.6,0.6-1.12,1.28-1.55,2.02c-0.42,0.74-0.75,1.53-0.97,2.35c-0.06,0.21-0.21,0.38-0.4,0.46
				C59.77,75.92,59.67,75.94,59.58,75.94z M56.58,72.71l2.6,1.5c0.23-0.63,0.51-1.24,0.84-1.83c0.34-0.58,0.72-1.14,1.16-1.65
				l-2.6-1.5L56.58,72.71z"/>
		</g>
		<g>
			<path class="st0" d="M69.62,83.81c-3.25,0-5.89-2.64-5.89-5.89c0-3.24,2.64-5.88,5.89-5.88c3.24,0,5.88,2.64,5.88,5.88
				C75.5,81.17,72.86,83.81,69.62,83.81z M69.62,73.43c-2.48,0-4.5,2.02-4.5,4.49c0,2.48,2.02,4.5,4.5,4.5s4.49-2.02,4.49-4.5
				C74.11,75.44,72.1,73.43,69.62,73.43z"/>
		</g>
		<g>
			<path class="st0" d="M43.87,47.52c-0.2,0-0.39-0.08-0.53-0.25l-4.37-5.16c-0.21-0.25-0.22-0.62-0.01-0.88l4.1-5.15
				c0.24-0.3,0.68-0.35,0.98-0.11c0.3,0.24,0.35,0.68,0.11,0.98l-3.75,4.7l4,4.73c0.25,0.29,0.21,0.73-0.08,0.98
				C44.19,47.46,44.03,47.52,43.87,47.52z"/>
		</g>
		<g>
			<path class="st0" d="M54.9,47.52c-0.16,0-0.32-0.05-0.45-0.16c-0.29-0.25-0.33-0.69-0.08-0.98l4.01-4.73l-3.75-4.7
				c-0.24-0.3-0.19-0.74,0.11-0.98c0.3-0.24,0.74-0.19,0.98,0.11l4.1,5.15c0.21,0.26,0.2,0.63-0.01,0.88l-4.37,5.16
				C55.29,47.43,55.1,47.52,54.9,47.52z"/>
		</g>
		<g>
			<path class="st0" d="M46.74,46.77c-0.12,0-0.24-0.03-0.35-0.1c-0.33-0.2-0.44-0.62-0.25-0.95l5.75-9.76
				c0.19-0.33,0.62-0.44,0.95-0.25c0.33,0.2,0.44,0.62,0.25,0.95l-5.75,9.76C47.21,46.65,46.98,46.77,46.74,46.77z"/>
		</g>
		<g>
			<path class="st0" d="M57.02,60.44H34.05c-0.38,0-0.7-0.31-0.7-0.7c0-0.38,0.31-0.7,0.7-0.7h22.97c0.38,0,0.7,0.31,0.7,0.7
				C57.72,60.12,57.41,60.44,57.02,60.44z"/>
		</g>
		<g>
			<path class="st0" d="M57.02,65.64H34.05c-0.38,0-0.7-0.31-0.7-0.7c0-0.38,0.31-0.7,0.7-0.7h22.97c0.38,0,0.7,0.31,0.7,0.7
				C57.72,65.32,57.41,65.64,57.02,65.64z"/>
		</g>
		<g>
			<path class="st0" d="M39.86,70.82h-5.81c-0.38,0-0.7-0.31-0.7-0.7s0.31-0.7,0.7-0.7h5.81c0.38,0,0.7,0.31,0.7,0.7
				S40.25,70.82,39.86,70.82z"/>
		</g>
		<g>
			<path class="st0" d="M45.28,76.02H34.05c-0.38,0-0.7-0.31-0.7-0.7c0-0.38,0.31-0.7,0.7-0.7h11.22c0.38,0,0.7,0.31,0.7,0.7
				S45.66,76.02,45.28,76.02z"/>
		</g>
		<g>
			<path class="st0" d="M48.95,70.82h-5.81c-0.38,0-0.7-0.31-0.7-0.7s0.31-0.7,0.7-0.7h5.81c0.38,0,0.7,0.31,0.7,0.7
				S49.33,70.82,48.95,70.82z"/>
		</g>
	</g>
</g>
</svg>
