<?xml version="1.0" encoding="utf-8"?>
<!-- Generator: Adobe Illustrator 26.3.1, SVG Export Plug-In . SVG Version: 6.00 Build 0)  -->
<svg version="1.1" id="Layer_1" xmlns="http://www.w3.org/2000/svg" xmlns:xlink="http://www.w3.org/1999/xlink" x="0px" y="0px"
	 viewBox="0 0 100 100" style="enable-background:new 0 0 100 100;" xml:space="preserve">
<style type="text/css">
	.st0{fill:#2D62AE;}
</style>
<g>
	<g>
		<g>
			<path class="st0" d="M52.93,89.6h-5.86c-0.34,0-0.62-0.25-0.67-0.58l-1.62-10.8c-1.78-0.3-3.57-0.78-5.32-1.42l-6.79,8.55
				c-0.21,0.27-0.58,0.34-0.88,0.17l-5.08-2.93c-0.29-0.17-0.42-0.53-0.29-0.84l4-10.17c-1.4-1.16-2.7-2.47-3.89-3.89l-10.17,4
				c-0.32,0.12-0.67,0-0.84-0.29l-2.93-5.08c-0.17-0.29-0.1-0.66,0.17-0.87l8.54-6.8c-0.63-1.72-1.11-3.5-1.42-5.31L9.07,51.7
				c-0.33-0.05-0.58-0.34-0.58-0.67v-5.86c0-0.34,0.25-0.62,0.58-0.67l10.79-1.62c0.31-1.81,0.79-3.6,1.42-5.31l-8.54-6.8
				c-0.26-0.21-0.33-0.58-0.17-0.88l2.93-5.08c0.17-0.29,0.53-0.42,0.84-0.29l10.63,4.18c0.35,0.14,0.52,0.53,0.38,0.88
				c-0.14,0.35-0.54,0.52-0.88,0.38L16.4,25.99l-2.34,4.06l8.47,6.74c0.23,0.19,0.32,0.5,0.21,0.78c-0.75,1.93-1.29,3.95-1.61,6
				c-0.05,0.29-0.28,0.52-0.57,0.57l-10.7,1.61v4.69l10.7,1.61c0.3,0.04,0.53,0.27,0.57,0.57c0.32,2.05,0.86,4.07,1.61,6
				c0.11,0.28,0.02,0.59-0.21,0.78l-8.47,6.74l2.34,4.06l10.08-3.96c0.28-0.11,0.59-0.03,0.78,0.21c1.32,1.63,2.79,3.11,4.39,4.39
				c0.23,0.19,0.32,0.5,0.21,0.78L27.9,81.69l4.06,2.34l6.74-8.47c0.19-0.23,0.5-0.32,0.78-0.21c1.98,0.76,4,1.3,6.01,1.6
				c0.3,0.05,0.53,0.28,0.57,0.57l1.61,10.71h4.68l1.61-10.71c0.04-0.3,0.27-0.53,0.57-0.57c2.07-0.32,4.09-0.86,6-1.6
				c0.28-0.11,0.59-0.02,0.78,0.21l6.74,8.47l4.06-2.34l-3.96-10.08c-0.11-0.28-0.03-0.59,0.21-0.78c1.62-1.3,3.09-2.78,4.39-4.39
				c0.19-0.23,0.5-0.32,0.78-0.21l10.08,3.96l2.34-4.06l-8.46-6.74c-0.23-0.19-0.32-0.5-0.21-0.78c0.75-1.92,1.29-3.94,1.61-6
				c0.05-0.29,0.28-0.52,0.57-0.57l10.71-1.61v-4.69l-10.71-1.61c-0.3-0.04-0.53-0.28-0.57-0.57c-0.31-2.05-0.85-4.06-1.6-6
				c-0.11-0.28-0.02-0.59,0.21-0.78l8.46-6.74l-2.34-4.06l-10.08,3.96c-0.35,0.14-0.75-0.03-0.88-0.38
				c-0.14-0.35,0.03-0.75,0.38-0.88l10.63-4.18c0.31-0.13,0.67,0,0.84,0.29l2.93,5.08c0.17,0.29,0.1,0.66-0.16,0.88l-8.53,6.8
				c0.63,1.72,1.11,3.51,1.42,5.31l10.8,1.62c0.33,0.05,0.58,0.34,0.58,0.67v5.86c0,0.34-0.25,0.62-0.58,0.67l-10.8,1.62
				c-0.31,1.81-0.79,3.6-1.42,5.31l8.53,6.8c0.26,0.21,0.33,0.58,0.16,0.88l-2.93,5.08c-0.17,0.29-0.53,0.42-0.84,0.29l-10.16-4
				c-1.17,1.41-2.48,2.71-3.89,3.89l4,10.17c0.12,0.31,0,0.67-0.29,0.84l-5.07,2.93c-0.29,0.17-0.66,0.1-0.88-0.16l-6.8-8.54
				c-1.71,0.63-3.49,1.1-5.32,1.41L53.64,89C53.55,89.35,53.26,89.6,52.93,89.6z"/>
		</g>
		<g>
			<path class="st0" d="M68.89,64.84H31.1c-0.38,0-0.68-0.31-0.68-0.68V12.34c0-0.38,0.31-0.68,0.68-0.68h28.34
				c0.18,0,0.35,0.07,0.48,0.2l9.44,9.44c0.13,0.13,0.2,0.3,0.2,0.48v42.37C69.57,64.54,69.27,64.84,68.89,64.84z M31.79,63.48
				h36.42V22.07l-9.04-9.05H31.79V63.48z"/>
		</g>
		<g>
			<path class="st0" d="M68.91,22.47c-0.01,0-0.01,0-0.02,0h-9.44c-0.38,0-0.68-0.31-0.68-0.68v-9.44c0-0.28,0.17-0.52,0.42-0.63
				c0.26-0.1,0.55-0.05,0.74,0.15l9.35,9.36c0.19,0.12,0.31,0.33,0.31,0.57C69.59,22.17,69.29,22.47,68.91,22.47z M60.13,21.11h7.11
				l-7.11-7.12C60.13,13.99,60.13,21.11,60.13,21.11z"/>
		</g>
		<g>
			<path class="st0" d="M55.46,49.35H44.53c-0.12,0-0.25-0.03-0.35-0.1c-3.44-2.07-5.49-5.69-5.49-9.7
				c0-6.23,5.07-11.31,11.31-11.31c6.23,0,11.3,5.07,11.3,11.31c0,4-2.05,7.63-5.49,9.7C55.71,49.32,55.58,49.35,55.46,49.35z
				 M44.73,47.98h10.54c2.93-1.83,4.67-4.97,4.67-8.43c0-5.48-4.46-9.94-9.94-9.94s-9.94,4.46-9.94,9.94
				C40.06,43.01,41.8,46.15,44.73,47.98z"/>
		</g>
		<g>
			<path class="st0" d="M54.09,58.56H45.9c-0.38,0-0.68-0.31-0.68-0.68v-9.21c0-0.38,0.31-0.68,0.68-0.68h8.19
				c0.38,0,0.68,0.31,0.68,0.68v9.21C54.77,58.26,54.47,58.56,54.09,58.56z M46.59,57.2h6.82v-7.85h-6.82V57.2z"/>
		</g>
		<g>
			<path class="st0" d="M58.69,49.35H41.31c-0.38,0-0.68-0.31-0.68-0.68c0-0.38,0.31-0.68,0.68-0.68h17.38
				c0.38,0,0.68,0.31,0.68,0.68C59.37,49.04,59.07,49.35,58.69,49.35z"/>
		</g>
		<g>
			<path class="st0" d="M55.67,52.71H44.32c-0.38,0-0.68-0.31-0.68-0.68c0-0.38,0.31-0.68,0.68-0.68h11.35
				c0.38,0,0.68,0.31,0.68,0.68C56.35,52.41,56.05,52.71,55.67,52.71z"/>
		</g>
		<g>
			<path class="st0" d="M55.67,55.29H44.32c-0.38,0-0.68-0.31-0.68-0.68c0-0.38,0.31-0.68,0.68-0.68h11.35
				c0.38,0,0.68,0.31,0.68,0.68S56.05,55.29,55.67,55.29z"/>
		</g>
		<g>
			<path class="st0" d="M50,61.36c-1.61,0-2.92-1.31-2.92-2.92c0-0.25,0.03-0.49,0.09-0.72c0.08-0.3,0.35-0.52,0.66-0.52h4.34
				c0.31,0,0.58,0.21,0.66,0.51c0.06,0.23,0.09,0.46,0.09,0.73C52.92,60.05,51.61,61.36,50,61.36z M48.45,58.56
				c0.06,0.8,0.74,1.43,1.55,1.43c0.81,0,1.48-0.63,1.55-1.43H48.45z"/>
		</g>
		<g>
			<path class="st0" d="M51.49,49.35c-0.38,0-0.68-0.31-0.68-0.68V37c0-0.16,0.06-0.31,0.16-0.44l2.48-2.97
				c0.24-0.29,0.67-0.33,0.96-0.09s0.33,0.67,0.09,0.96l-2.32,2.78v11.42C52.17,49.04,51.86,49.35,51.49,49.35z M48.51,49.35
				c-0.38,0-0.68-0.31-0.68-0.68V37.25l-2.33-2.78c-0.24-0.29-0.2-0.72,0.08-0.96c0.29-0.24,0.72-0.2,0.96,0.08l2.49,2.97
				c0.1,0.12,0.16,0.28,0.16,0.44v11.66C49.2,49.04,48.89,49.35,48.51,49.35z"/>
		</g>
		<g>
			<path class="st0" d="M46.6,16.64H34.75c-0.38,0-0.68-0.31-0.68-0.68c0-0.38,0.31-0.68,0.68-0.68H46.6c0.38,0,0.68,0.31,0.68,0.68
				C47.28,16.33,46.98,16.64,46.6,16.64z"/>
		</g>
		<g>
			<path class="st0" d="M46.6,19.25H34.75c-0.38,0-0.68-0.31-0.68-0.68c0-0.38,0.31-0.68,0.68-0.68H46.6c0.38,0,0.68,0.31,0.68,0.68
				C47.28,18.95,46.98,19.25,46.6,19.25z"/>
		</g>
	</g>
</g>
</svg>
