<?xml version="1.0" encoding="utf-8"?>
<!-- Generator: Adobe Illustrator 26.3.1, SVG Export Plug-In . SVG Version: 6.00 Build 0)  -->
<svg version="1.1" id="Layer_1" xmlns="http://www.w3.org/2000/svg" xmlns:xlink="http://www.w3.org/1999/xlink" x="0px" y="0px"
	 viewBox="0 0 100 100" style="enable-background:new 0 0 100 100;" xml:space="preserve">
<style type="text/css">
	.st0{fill:#2D62AE;}
</style>
<g>
	<g>
		<g>
			<path class="st0" d="M62.4,81.55H12.29c-2.4,0-4.34-1.95-4.34-4.35V48c0-2.39,1.95-4.34,4.34-4.34h42.58
				c0.38,0,0.69,0.31,0.69,0.69s-0.31,0.69-0.69,0.69H12.29c-1.63,0-2.96,1.32-2.96,2.95v29.2c0,1.63,1.33,2.96,2.96,2.96H62.4
				c0.38,0,0.69,0.31,0.69,0.69C63.09,81.24,62.78,81.55,62.4,81.55z"/>
		</g>
		<g>
			<path class="st0" d="M87.72,81.55h-29.2c-2.39,0-4.34-1.95-4.34-4.35V20.86c0-2.39,1.95-4.34,4.34-4.34h29.2
				c2.39,0,4.34,1.94,4.34,4.34V77.2C92.06,79.6,90.11,81.55,87.72,81.55z M58.52,17.91c-1.63,0-2.96,1.32-2.96,2.95V77.2
				c0,1.63,1.33,2.96,2.96,2.96h29.2c1.63,0,2.96-1.33,2.96-2.96V20.86c0-1.63-1.33-2.95-2.96-2.95H58.52z"/>
		</g>
		<g>
			<path class="st0" d="M73.12,78.03c-1.74,0-3.16-1.42-3.16-3.16c0-1.75,1.42-3.17,3.16-3.17c1.74,0,3.16,1.42,3.16,3.17
				C76.28,76.61,74.86,78.03,73.12,78.03z M73.12,73.08c-0.98,0-1.78,0.8-1.78,1.79c0,0.98,0.8,1.78,1.78,1.78
				c0.98,0,1.78-0.8,1.78-1.78C74.89,73.88,74.1,73.08,73.12,73.08z"/>
		</g>
		<g>
			<path class="st0" d="M88.08,69.36H58.15c-0.38,0-0.69-0.31-0.69-0.69V25.9c0-0.38,0.31-0.69,0.69-0.69h29.93
				c0.38,0,0.69,0.31,0.69,0.69v42.77C88.77,69.05,88.46,69.36,88.08,69.36z M58.84,67.98h28.55V26.59H58.84V67.98z"/>
		</g>
		<g>
			<path class="st0" d="M78.32,22.59h-2.01c-0.38,0-0.69-0.31-0.69-0.69c0-0.38,0.31-0.69,0.69-0.69h2.01
				c0.38,0,0.69,0.31,0.69,0.69S78.71,22.59,78.32,22.59z M74.87,22.59h-6.96c-0.38,0-0.69-0.31-0.69-0.69
				c0-0.38,0.31-0.69,0.69-0.69h6.96c0.38,0,0.69,0.31,0.69,0.69C75.56,22.28,75.25,22.59,74.87,22.59z"/>
		</g>
		<g>
			<path class="st0" d="M54.87,78.27H17.32c-0.38,0-0.69-0.31-0.69-0.69V47.65c0-0.38,0.31-0.69,0.69-0.69h37.55
				c0.38,0,0.69,0.31,0.69,0.69v29.93C55.56,77.96,55.25,78.27,54.87,78.27z M18.01,76.88h36.16V48.34H18.01V76.88z"/>
		</g>
		<g>
			<path class="st0" d="M13.32,68.51c-0.38,0-0.69-0.31-0.69-0.69v-6.97c0-0.38,0.31-0.69,0.69-0.69c0.38,0,0.69,0.31,0.69,0.69
				v6.97C14.01,68.2,13.7,68.51,13.32,68.51z M13.32,60.1c-0.38,0-0.69-0.31-0.69-0.69V57.4c0-0.38,0.31-0.69,0.69-0.69
				c0.38,0,0.69,0.31,0.69,0.69v2.01C14.01,59.79,13.7,60.1,13.32,60.1z"/>
		</g>
		<g>
			<path class="st0" d="M84.54,34.18H68.17c-0.38,0-0.69-0.31-0.69-0.69c0-0.38,0.31-0.69,0.69-0.69h16.36
				c0.38,0,0.69,0.31,0.69,0.69C85.23,33.87,84.92,34.18,84.54,34.18z M64.56,34.18H61.7c-0.38,0-0.69-0.31-0.69-0.69
				c0-0.38,0.31-0.69,0.69-0.69h2.85c0.38,0,0.69,0.31,0.69,0.69C65.25,33.87,64.94,34.18,64.56,34.18z"/>
		</g>
		<g>
			<path class="st0" d="M66.37,35.99c-1.38,0-2.5-1.12-2.5-2.5S64.99,31,66.37,31s2.5,1.12,2.5,2.49
				C68.86,34.87,67.74,35.99,66.37,35.99z M66.37,32.37c-0.62,0-1.12,0.5-1.12,1.11c0,0.62,0.5,1.12,1.12,1.12
				c0.61,0,1.11-0.5,1.11-1.12C67.48,32.87,66.98,32.37,66.37,32.37z"/>
		</g>
		<g>
			<path class="st0" d="M84.54,41.51h-9.61c-0.38,0-0.69-0.31-0.69-0.69c0-0.38,0.31-0.69,0.69-0.69h9.61
				c0.38,0,0.69,0.31,0.69,0.69C85.23,41.2,84.92,41.51,84.54,41.51z M71.31,41.51h-9.6c-0.38,0-0.69-0.31-0.69-0.69
				c0-0.38,0.31-0.69,0.69-0.69h9.6c0.38,0,0.69,0.31,0.69,0.69C72,41.2,71.69,41.51,71.31,41.51z"/>
		</g>
		<g>
			<path class="st0" d="M73.12,43.32c-1.38,0-2.5-1.12-2.5-2.5s1.12-2.49,2.5-2.49s2.5,1.12,2.5,2.49
				C75.62,42.2,74.49,43.32,73.12,43.32z M73.12,39.71c-0.61,0-1.12,0.5-1.12,1.11c0,0.62,0.5,1.12,1.12,1.12s1.12-0.5,1.12-1.12
				C74.23,40.21,73.73,39.71,73.12,39.71z"/>
		</g>
		<g>
			<path class="st0" d="M73.12,66.08c-5.9,0-10.69-4.8-10.69-10.7c0-5.89,4.8-10.69,10.69-10.69c5.9,0,10.7,4.8,10.7,10.69
				C83.82,61.28,79.01,66.08,73.12,66.08z M73.12,46.07c-5.13,0-9.31,4.18-9.31,9.31c0,5.14,4.18,9.32,9.31,9.32
				c5.14,0,9.32-4.18,9.32-9.32C82.43,50.25,78.25,46.07,73.12,46.07z"/>
		</g>
		<g>
			<path class="st0" d="M73.12,66.08c-3.26,0-5.81-4.7-5.81-10.7c0-5.99,2.55-10.69,5.81-10.69c3.26,0,5.82,4.7,5.82,10.69
				C78.93,61.38,76.38,66.08,73.12,66.08z M73.12,46.07c-2.4,0-4.43,4.26-4.43,9.31s2.03,9.32,4.43,9.32s4.43-4.27,4.43-9.32
				S75.52,46.07,73.12,46.07z"/>
		</g>
		<g>
			<path class="st0" d="M83.12,56.07H63.11c-0.38,0-0.69-0.31-0.69-0.69c0-0.38,0.31-0.69,0.69-0.69h20.01
				c0.38,0,0.69,0.31,0.69,0.69C83.82,55.76,83.51,56.07,83.12,56.07z"/>
		</g>
		<g>
			<path class="st0" d="M73.12,66.08c-0.38,0-0.69-0.31-0.69-0.69V45.37c0-0.38,0.31-0.69,0.69-0.69c0.38,0,0.69,0.31,0.69,0.69
				v20.02C73.81,65.77,73.5,66.08,73.12,66.08z"/>
		</g>
		<g>
			<path class="st0" d="M73.15,51.57c-2.78,0-5.58-0.47-8.36-1.4c-0.36-0.12-0.56-0.51-0.44-0.87c0.12-0.36,0.51-0.56,0.87-0.44
				c5.28,1.77,10.59,1.77,15.78,0c0.37-0.12,0.75,0.07,0.88,0.43c0.12,0.36-0.07,0.75-0.43,0.88C78.71,51.1,75.94,51.57,73.15,51.57
				z"/>
		</g>
		<g>
			<path class="st0" d="M65.01,61.72c-0.29,0-0.56-0.18-0.66-0.47c-0.12-0.36,0.07-0.75,0.44-0.87c5.57-1.86,11.18-1.86,16.66,0
				c0.36,0.12,0.55,0.52,0.43,0.88s-0.52,0.56-0.88,0.43c-5.19-1.76-10.5-1.76-15.78,0C65.15,61.71,65.08,61.72,65.01,61.72z"/>
		</g>
	</g>
</g>
</svg>
