<?xml version="1.0" encoding="utf-8"?>
<!-- Generator: Adobe Illustrator 26.3.1, SVG Export Plug-In . SVG Version: 6.00 Build 0)  -->
<svg version="1.1" id="Layer_1" xmlns="http://www.w3.org/2000/svg" xmlns:xlink="http://www.w3.org/1999/xlink" x="0px" y="0px"
	 viewBox="0 0 100 100" style="enable-background:new 0 0 100 100;" xml:space="preserve">
<style type="text/css">
	.st0{fill:#2D62AE;}
</style>
<g>
	<g>
		<g>
			<path class="st0" d="M77.96,82.11c-7.54,0-14.12-5.35-15.65-12.72c-0.08-0.39,0.17-0.77,0.56-0.85c0.39-0.08,0.77,0.17,0.85,0.56
				c1.39,6.71,7.38,11.58,14.25,11.58c8.02,0,14.54-6.53,14.54-14.55s-6.52-14.54-14.54-14.54c-1.08,0-2.15,0.12-3.16,0.34
				c-0.39,0.09-0.77-0.16-0.86-0.54c-0.09-0.39,0.16-0.77,0.54-0.86c1.12-0.25,2.29-0.38,3.47-0.38c8.81,0,15.97,7.16,15.97,15.97
				C93.94,74.94,86.77,82.11,77.96,82.11z"/>
		</g>
		<g>
			<path class="st0" d="M77.96,82.11c-3.46,0-6.34-5.27-6.99-12.81c-0.03-0.39,0.26-0.74,0.65-0.78c0.38-0.04,0.74,0.26,0.78,0.65
				c0.57,6.56,2.96,11.5,5.56,11.5c2.75,0,5.69-5.84,5.69-14.55c0-8.7-2.94-14.54-5.69-14.54c-1.17,0-2.13,1.03-2.73,1.89
				c-0.22,0.32-0.67,0.4-1,0.18c-0.32-0.23-0.41-0.67-0.18-1c1.14-1.64,2.49-2.5,3.91-2.5c3.99,0,7.12,7.02,7.12,15.97
				C85.09,75.09,81.96,82.11,77.96,82.11z"/>
		</g>
		<g>
			<path class="st0" d="M74.64,69.96H7.49c-0.4,0-0.72-0.32-0.72-0.72V18.71c0-0.4,0.32-0.72,0.72-0.72h67.15
				c0.4,0,0.72,0.32,0.72,0.72v50.53C75.36,69.64,75.04,69.96,74.64,69.96z M8.21,68.52h65.72v-49.1H8.21V68.52z"/>
		</g>
		<g>
			<path class="st0" d="M30.8,55.71h-3.54c-0.4,0-0.72-0.32-0.72-0.72V42.74c0-0.4,0.32-0.72,0.72-0.72h3.54
				c0.4,0,0.72,0.32,0.72,0.72v12.25C31.51,55.39,31.19,55.71,30.8,55.71z M27.97,54.27h2.11V43.45h-2.11V54.27z"/>
		</g>
		<g>
			<path class="st0" d="M36.85,55.71h-3.54c-0.4,0-0.72-0.32-0.72-0.72V40.27c0-0.4,0.32-0.72,0.72-0.72h3.54
				c0.4,0,0.72,0.32,0.72,0.72v14.72C37.57,55.39,37.25,55.71,36.85,55.71z M34.03,54.27h2.11V40.99h-2.11V54.27z"/>
		</g>
		<g>
			<path class="st0" d="M42.91,55.71h-3.54c-0.4,0-0.72-0.32-0.72-0.72V43.76c0-0.4,0.32-0.72,0.72-0.72h3.54
				c0.4,0,0.72,0.32,0.72,0.72v11.23C43.63,55.39,43.31,55.71,42.91,55.71z M40.08,54.27h2.11v-9.8h-2.11V54.27z"/>
		</g>
		<g>
			<path class="st0" d="M48.97,55.71h-3.54c-0.4,0-0.72-0.32-0.72-0.72V50.1c0-0.4,0.32-0.72,0.72-0.72h3.54
				c0.4,0,0.72,0.32,0.72,0.72v4.89C49.68,55.39,49.36,55.71,48.97,55.71z M46.14,54.27h2.11v-3.45h-2.11V54.27z"/>
		</g>
		<g>
			<path class="st0" d="M55.03,55.71h-3.54c-0.4,0-0.72-0.32-0.72-0.72V43.86c0-0.4,0.32-0.72,0.72-0.72h3.54
				c0.4,0,0.72,0.32,0.72,0.72v11.13C55.74,55.39,55.42,55.71,55.03,55.71z M52.2,54.27h2.11v-9.7H52.2V54.27z"/>
		</g>
		<g>
			<path class="st0" d="M60.21,58.83H21.88c-0.4,0-0.72-0.32-0.72-0.72s0.32-0.72,0.72-0.72h38.33c0.4,0,0.72,0.32,0.72,0.72
				C60.93,58.51,60.61,58.83,60.21,58.83z"/>
		</g>
		<g>
			<path class="st0" d="M74.64,30.78H7.49c-0.4,0-0.72-0.32-0.72-0.72s0.32-0.72,0.72-0.72h67.15c0.4,0,0.72,0.32,0.72,0.72
				C75.36,30.46,75.04,30.78,74.64,30.78z"/>
		</g>
		<g>
			<path class="st0" d="M14.28,26.89c-1.45,0-2.63-1.18-2.63-2.62s1.18-2.62,2.63-2.62s2.63,1.18,2.63,2.62S15.73,26.89,14.28,26.89
				z M14.28,23.07c-0.66,0-1.2,0.53-1.2,1.19s0.54,1.19,1.2,1.19s1.2-0.53,1.2-1.19S14.94,23.07,14.28,23.07z"/>
		</g>
		<g>
			<path class="st0" d="M22.56,26.89c-1.45,0-2.63-1.18-2.63-2.62s1.18-2.62,2.63-2.62s2.62,1.18,2.62,2.62S24.01,26.89,22.56,26.89
				z M22.56,23.07c-0.66,0-1.2,0.53-1.2,1.19s0.54,1.19,1.2,1.19s1.19-0.53,1.19-1.19S23.22,23.07,22.56,23.07z"/>
		</g>
		<g>
			<path class="st0" d="M74.64,24.98h-37.3c-0.4,0-0.72-0.32-0.72-0.72s0.32-0.72,0.72-0.72h37.3c0.4,0,0.72,0.32,0.72,0.72
				S75.04,24.98,74.64,24.98z"/>
		</g>
		<g>
			<path class="st0" d="M77.96,82.11c-0.4,0-0.72-0.32-0.72-0.72V50.88c0-0.4,0.32-0.72,0.72-0.72s0.72,0.32,0.72,0.72V81.4
				C78.68,81.79,78.36,82.11,77.96,82.11z"/>
		</g>
		<g>
			<path class="st0" d="M93.22,66.85H74.64c-0.4,0-0.72-0.32-0.72-0.72s0.32-0.72,0.72-0.72h18.58c0.4,0,0.72,0.32,0.72,0.72
				S93.62,66.85,93.22,66.85z"/>
		</g>
		<g>
			<path class="st0" d="M77.71,60.13c-1.05,0-2.09-0.04-3.12-0.12c-0.39-0.03-0.69-0.37-0.66-0.77c0.03-0.39,0.37-0.69,0.77-0.66
				c5.05,0.39,10.32-0.21,15.65-1.76c0.38-0.11,0.78,0.11,0.89,0.49s-0.11,0.78-0.49,0.89C86.34,59.48,81.97,60.13,77.71,60.13z"/>
		</g>
		<g>
			<path class="st0" d="M65.37,74.36c-0.31,0-0.59-0.2-0.68-0.5c-0.12-0.38,0.09-0.78,0.47-0.9c8.3-2.59,16.67-2.59,25.6,0
				c0.38,0.11,0.6,0.51,0.49,0.89s-0.51,0.6-0.89,0.49c-8.64-2.51-16.75-2.51-24.77,0C65.51,74.35,65.44,74.36,65.37,74.36z"/>
		</g>
	</g>
</g>
</svg>
